# xmcd
#
# Track frame offsets:
#	150
#	18975
#	39357
#	60682
#	77637
#	94977
#	115587
#	131920
#	146020
#	165425
#	187860
#	204230
#	223197
#	244705
#	262862
#	282587
#
# Disc length: 4149 seconds
#
# Revision: 0
# Processed by: cddbd v1.5.1PL0 Copyright (c) Steve Scherf et al.
# Submitted via: dBpowerAMP V4.0
#
DISCID=dd103310
DTITLE=GLORIA GAYNOR - GREATEST HITS
DYEAR=1900
DGENRE=Blues
TTITLE0=NEVER CAN I SAY GOODBYE
TTITLE1=IÌL BE THERE
TTITLE2=MIGHTY HIGH
TTITLE3=I WILL SURVIVE
TTITLE4=STRIVE
TTITLE5=THE FIRST, THE LAST, MY EVERYTHING
TTITLE6=I SAY A LITTLE PRAYER
TTITLE7=DON`T GO SOFT ON ME
TTITLE8=REMEMBER
TTITLE9=I AM WHAT I AM
TTITLE10=REACH OUT IÌLÆ BE THERE
TTITLE11=WONDERFULL DAY
TTITLE12=HOW HIGH THE MOON
TTITLE13=I CHOOSE JOY
TTITLE14=I  WILL ALWAYS LOVE YOU
TTITLE15=NEVER CAN SAY GOODBYE
EXTD=
EXTT0=
EXTT1=
EXTT2=
EXTT3=
EXTT4=
EXTT5=
EXTT6=
EXTT7=
EXTT8=
EXTT9=
EXTT10=
EXTT11=
EXTT12=
EXTT13=
EXTT14=
EXTT15=
PLAYORDER=
